HIERARCHY
ROOT Hips
{
	OFFSET 0.000000 0.000000 0.000000
	CHANNELS 6 Xposition Yposition Zposition Xrotation Yrotation Zrotation
	JOINT LeftUpLeg_virtual
	{
		OFFSET 0.000000 0.000000 0.000000
		CHANNELS 3 Xrotation Yrotation Zrotation
		JOINT LeftUpLeg
		{
			OFFSET 10.205400 -3.823500 0.155100
			CHANNELS 3 Xrotation Yrotation Zrotation
			JOINT LeftLeg
			{
				OFFSET 0.708757 -12.982077 0.567790
				CHANNELS 3 Xrotation Yrotation Zrotation
				JOINT LeftFoot
				{
					OFFSET -0.708756 -10.717838 -2.184338
					CHANNELS 3 Xrotation Yrotation Zrotation
					JOINT LeftToeBase
					{
						OFFSET 0.108149 -7.191104 7.560241
						CHANNELS 3 Xrotation Yrotation Zrotation
						JOINT LeftToe_End
						{
							OFFSET 0.070230 0.081724 4.490308
							CHANNELS 3 Xrotation Yrotation Zrotation
							End Site
							{
								OFFSET 0 0 0
							}
						}
					}
				}
			}
		}
	}
	JOINT RightUpLeg_virtual
	{
		OFFSET 0.000000 0.000000 0.000000
		CHANNELS 3 Xrotation Yrotation Zrotation
		JOINT RightUpLeg
		{
			OFFSET -10.205400 -3.823500 0.005500
			CHANNELS 3 Xrotation Yrotation Zrotation
			JOINT RightLeg
			{
				OFFSET -0.708756 -12.982134 0.610632
				CHANNELS 3 Xrotation Yrotation Zrotation
				JOINT RightFoot
				{
					OFFSET 0.708754 -10.717769 -1.945823
					CHANNELS 3 Xrotation Yrotation Zrotation
					JOINT RightToeBase
					{
						OFFSET -0.108140 -7.191069 7.372968
						CHANNELS 3 Xrotation Yrotation Zrotation
						JOINT RightToe_End
						{
							OFFSET -0.070227 0.081735 4.479403
							CHANNELS 3 Xrotation Yrotation Zrotation
							End Site
							{
								OFFSET 0 0 0
							}
						}
					}
				}
			}
		}
	}
	JOINT Spine_virtual
	{
		OFFSET 0.000000 0.000000 0.000000
		CHANNELS 3 Xrotation Yrotation Zrotation
		JOINT Spine
		{
			OFFSET 0.000000 6.876099 0.125700
			CHANNELS 3 Xrotation Yrotation Zrotation
			JOINT Spine1
			{
				OFFSET 0.000000 5.730043 0.104720
				CHANNELS 3 Xrotation Yrotation Zrotation
				JOINT Spine1_split
				{
					OFFSET 0.000000 5.730043 0.104720
					CHANNELS 3 Xrotation Yrotation Zrotation
					JOINT Spine2
					{
						OFFSET 0.000000 5.730043 0.104720
						CHANNELS 3 Xrotation Yrotation Zrotation
						JOINT Neck_virtual
						{
							OFFSET 0.000000 0.000000 0.000000
							CHANNELS 3 Xrotation Yrotation Zrotation
							JOINT Neck
							{
								OFFSET 0.000000 10.314075 0.188496
								CHANNELS 3 Xrotation Yrotation Zrotation
								JOINT Head
								{
									OFFSET 0.000000 7.643700 -2.377400
									CHANNELS 3 Xrotation Yrotation Zrotation
									JOINT HeadTop_End
									{
										OFFSET 0.000000 43.788605 -13.619600
										CHANNELS 3 Xrotation Yrotation Zrotation
										End Site
										{
											OFFSET 0 0 0
										}
									}
								}
							}
						}
						JOINT LeftShoulder_virtual
						{
							OFFSET 0.000000 0.000000 0.000000
							CHANNELS 3 Xrotation Yrotation Zrotation
							JOINT LeftShoulder
							{
								OFFSET 2.196100 4.412489 0.087492
								CHANNELS 3 Xrotation Yrotation Zrotation
								JOINT LeftShoulder_split
								{
									OFFSET 2.196100 4.412489 0.087492
									CHANNELS 3 Xrotation Yrotation Zrotation
									JOINT LeftArm
									{
										OFFSET 8.771219 -2.981674 -0.026999
										CHANNELS 3 Xrotation Yrotation Zrotation
										JOINT LeftForeArm
										{
											OFFSET 8.512804 0.000000 -0.000000
											CHANNELS 3 Xrotation Yrotation Zrotation
											JOINT LeftHand
											{
												OFFSET 18.484802 0.000000 -0.000000
												CHANNELS 3 Xrotation Yrotation Zrotation
												End Site
												{
													OFFSET 0 0 0
												}
											}
										}
									}
								}
							}
						}
						JOINT RightShoulder_virtual
						{
							OFFSET 0.000000 0.000000 0.000000
							CHANNELS 3 Xrotation Yrotation Zrotation
							JOINT RightShoulder
							{
								OFFSET -2.196100 4.412496 0.070690
								CHANNELS 3 Xrotation Yrotation Zrotation
								JOINT RightShoulder_split
								{
									OFFSET -2.196100 4.412496 0.070690
									CHANNELS 3 Xrotation Yrotation Zrotation
									JOINT RightArm
									{
										OFFSET -8.771282 -2.981682 -0.094208
										CHANNELS 3 Xrotation Yrotation Zrotation
										JOINT RightForeArm
										{
											OFFSET -8.494598 0.000000 0.000000
											CHANNELS 3 Xrotation Yrotation Zrotation
											JOINT RightHand
											{
												OFFSET -18.483803 0.000000 0.000001
												CHANNELS 3 Xrotation Yrotation Zrotation
												End Site
												{
													OFFSET 0 0 0
												}
											}
										}
									}
								}
							}
						}
					}
				}
			}
		}
	}
}
MOTION
Frames: 10
Frame Time: 0.03333333
-1.959141 31.385910 7.519157 0.000000 0.000000 0.000000 -3.936757 -12.576174 -1.466664 -34.870715 -2.196747 3.478769 48.137599 -2.935718 -2.884271 -9.513512 -6.081111 -0.155487 -0.145715 0.120056 0.168541 0.000000 0.000000 0.000000 -3.936757 -12.576174 -1.466664 -26.746242 4.867836 0.372015 54.195854 11.319300 -7.406959 -24.308088 2.520272 1.103369 -2.565103 1.811898 2.588835 0.000000 0.000000 0.000000 -3.936757 -12.576174 -1.466664 5.723370 0.983448 -0.298446 4.742729 -0.034709 0.014577 0.000000 0.000000 0.000000 0.000000 0.000000 0.000000 10.263428 25.788726 -3.323035 3.214656 7.303392 0.249759 4.005138 60.914229 -6.734847 0.000000 0.000000 0.000000 10.263428 25.788726 -3.323035 8.936029 -24.743258 -2.968070 0.000000 0.000000 0.000000 -31.923594 13.247204 -57.689451 -91.207177 12.809530 -86.343754 0.000000 0.000000 0.000000 10.263428 25.788726 -3.323035 10.515593 19.507444 -2.043903 0.000000 0.000000 0.000000 -4.524364 39.703398 48.810366 -102.228302 64.578838 87.596691 0.000000 0.000000 0.000000 
-2.424162 31.537514 7.609766 0.000000 0.000000 0.000000 -3.718069 -9.752689 -1.281999 -34.957608 -4.215885 2.930282 45.881222 -3.603148 -2.601312 -7.568261 -6.165140 -1.238461 -0.152434 0.123968 0.176427 0.000000 0.000000 0.000000 -3.718069 -9.752689 -1.281999 -25.312403 4.195830 -1.064514 51.535720 9.849981 -4.043371 -23.166571 3.492224 1.336982 -1.112909 1.816886 1.373240 0.000000 0.000000 0.000000 -3.718069 -9.752689 -1.281999 5.731636 1.027396 -0.349569 4.739113 -0.064817 0.012273 0.000000 0.000000 0.000000 0.000000 0.000000 0.000000 10.292009 26.036297 -3.377460 3.202049 7.206159 0.255005 3.577887 59.991662 -6.564267 0.000000 0.000000 0.000000 10.292009 26.036297 -3.377460 8.936035 -24.743277 -2.968056 0.000000 0.000000 0.000000 -31.852843 14.094135 -57.493643 -91.088660 12.820038 -86.878654 0.000000 0.000000 0.000000 10.292009 26.036297 -3.377460 10.514905 19.496063 -2.041481 0.000000 0.000000 0.000000 -4.648036 40.347799 49.038969 -102.338159 64.567376 87.720652 0.000000 0.000000 0.000000 
-2.881210 31.690876 7.606710 0.000000 0.000000 0.000000 -3.523404 -6.731396 -1.104610 -35.202990 -6.117108 2.368442 42.954462 -5.008243 -2.360347 -4.883523 -5.790076 -2.251980 -0.157657 0.128084 0.182468 0.000000 0.000000 0.000000 -3.523404 -6.731396 -1.104610 -23.313374 2.363408 -1.506643 50.245655 8.676306 -2.830556 -23.803679 3.797557 0.278803 1.544051 2.198453 1.886985 0.000000 0.000000 0.000000 -3.523404 -6.731396 -1.104610 5.722167 1.073985 -0.351407 4.738550 -0.077031 0.013274 0.000000 0.000000 0.000000 0.000000 0.000000 0.000000 10.277606 25.957786 -3.363605 3.181538 7.089874 0.250241 3.168550 58.869155 -6.463682 0.000000 0.000000 0.000000 10.277606 25.957786 -3.363605 8.936018 -24.743223 -2.968087 0.000000 0.000000 0.000000 -31.626484 14.382068 -57.607878 -91.448686 12.659248 -87.265010 0.000000 0.000000 0.000000 10.277606 25.957786 -3.363605 10.515046 19.480690 -2.038395 0.000000 0.000000 0.000000 -4.644163 40.827442 49.316544 -102.775632 64.519866 87.913735 0.000000 0.000000 0.000000 
-3.294709 31.845303 7.478593 0.000000 0.000000 0.000000 -3.347867 -3.270549 -0.844246 -34.990953 -7.468458 2.752587 41.547221 -1.479798 -2.251018 -3.719091 -7.196222 -4.497987 -0.037960 0.169695 0.296771 0.000000 0.000000 0.000000 -3.347867 -3.270549 -0.844246 -21.300358 0.415564 -1.859977 49.118609 7.047006 -1.973729 -24.677573 3.981824 -0.713744 1.664835 2.199128 2.034949 0.000000 0.000000 0.000000 -3.347867 -3.270549 -0.844246 5.686920 1.094385 -0.397801 4.741276 -0.063565 0.011808 0.000000 0.000000 0.000000 0.000000 0.000000 0.000000 10.218572 25.720433 -3.366813 3.145541 6.961897 0.230084 2.520929 56.815921 -6.334006 0.000000 0.000000 0.000000 10.218572 25.720433 -3.366813 8.936012 -24.743303 -2.968074 0.000000 0.000000 0.000000 -30.898311 14.479562 -58.235019 -92.469314 12.257782 -87.943747 0.000000 0.000000 0.000000 10.218572 25.720433 -3.366813 10.515787 19.488652 -2.040146 0.000000 0.000000 0.000000 -4.203970 41.444741 49.690302 -104.168684 64.358059 88.692479 0.000000 0.000000 0.000000 
-3.524792 31.984364 7.110542 0.000000 0.000000 0.000000 -3.207371 0.335076 -0.502073 -33.932995 -6.817935 4.926447 43.690681 3.313267 -2.096686 -5.944905 -8.109017 -7.818226 0.451008 1.390165 2.347804 0.000000 0.000000 0.000000 -3.207371 0.335076 -0.502073 -20.045871 -1.372762 -2.510358 48.044637 5.425420 -1.477849 -24.962477 3.903240 -0.773895 1.683288 2.199294 2.057494 0.000000 0.000000 0.000000 -3.207371 0.335076 -0.502073 5.640090 1.043582 -0.494081 4.742842 -0.031177 0.012462 0.000000 0.000000 0.000000 0.000000 0.000000 0.000000 10.132341 25.296032 -3.314824 3.099178 6.825527 0.198604 2.119828 54.992742 -6.372120 0.000000 0.000000 0.000000 10.132341 25.296032 -3.314824 8.936047 -24.743276 -2.968052 0.000000 0.000000 0.000000 -30.121694 13.909095 -59.238121 -94.009365 11.728286 -88.383515 0.000000 0.000000 0.000000 10.132341 25.296032 -3.314824 10.517523 19.488546 -2.040457 0.000000 0.000000 0.000000 -3.551525 41.866430 49.854808 -105.744552 64.148624 89.393366 0.000000 0.000000 0.000000 
-3.527896 32.049595 6.632236 0.000000 0.000000 0.000000 -3.135289 3.623417 -0.146180 -33.325347 -1.317824 9.001093 46.625924 3.473032 -1.968199 -7.946892 -9.108634 -8.796677 -0.374281 2.724221 3.539124 0.000000 0.000000 0.000000 -3.135289 3.623417 -0.146180 -19.578227 -2.945049 -3.621890 47.652311 4.237454 -1.325868 -25.180283 3.603408 -0.154039 1.677803 2.199274 2.050833 0.000000 0.000000 0.000000 -3.135289 3.623417 -0.146180 5.585265 0.989924 -0.587719 4.746375 0.062270 0.008096 0.000000 0.000000 0.000000 0.000000 0.000000 0.000000 9.966268 24.638461 -3.270647 3.044398 6.684011 0.159790 1.595156 52.253812 -6.318786 0.000000 0.000000 0.000000 9.966268 24.638461 -3.270647 8.936007 -24.743265 -2.968076 0.000000 0.000000 0.000000 -28.827548 13.312428 -60.681518 -95.667680 11.234401 -89.297893 0.000000 0.000000 0.000000 9.966268 24.638461 -3.270647 10.521515 19.523438 -2.048235 0.000000 0.000000 0.000000 -2.057278 42.071640 49.733913 -108.551732 63.714805 91.350515 0.000000 0.000000 0.000000 
-3.276063 32.027691 6.095730 0.000000 0.000000 0.000000 -3.179105 6.647641 0.274949 -32.785273 1.786038 12.628403 49.712374 3.298493 -2.248409 -9.169387 -8.015822 -10.069879 -2.539916 3.873444 3.697708 0.000000 0.000000 0.000000 -3.179105 6.647641 0.274949 -19.671583 -4.253911 -5.372515 48.107249 3.464730 -1.519165 -25.643655 3.061635 1.163055 1.685112 2.199324 2.059721 0.000000 0.000000 0.000000 -3.179105 6.647641 0.274949 5.510296 0.901956 -0.568948 4.749425 0.112114 0.016025 0.000000 0.000000 0.000000 0.000000 0.000000 0.000000 9.809346 23.733564 -3.136699 3.018569 6.549236 0.074517 1.357416 50.250894 -6.444304 0.000000 0.000000 0.000000 9.809346 23.733564 -3.136699 8.936025 -24.743276 -2.968076 0.000000 0.000000 0.000000 -28.389312 11.750106 -61.846666 -97.506408 10.697222 -88.938523 0.000000 0.000000 0.000000 9.809346 23.733564 -3.136699 10.521881 19.580715 -2.059876 0.000000 0.000000 0.000000 -1.382927 41.903736 49.647583 -109.724708 63.517658 91.523975 0.000000 0.000000 0.000000 
-2.767386 31.921932 5.392530 0.000000 0.000000 0.000000 -3.386831 9.862498 0.844507 -31.445289 6.689706 18.517978 53.095995 3.387385 -2.601576 -11.105346 -6.214208 -12.987127 -4.596494 4.570929 4.469237 0.000000 0.000000 0.000000 -3.386831 9.862498 0.844507 -20.172955 -5.202074 -7.916503 49.253669 2.730849 -2.055097 -26.249336 2.151300 3.450155 1.695293 2.199428 2.072367 0.000000 0.000000 0.000000 -3.386831 9.862498 0.844507 5.389233 0.821003 -0.351415 4.776707 0.172995 -0.067192 0.000000 0.000000 0.000000 0.000000 0.000000 0.000000 9.638234 22.452937 -3.073846 2.983837 6.413099 0.003104 1.253325 47.670909 -6.443810 0.000000 0.000000 0.000000 9.638234 22.452937 -3.073846 8.936010 -24.743258 -2.968066 0.000000 0.000000 0.000000 -28.217760 9.901038 -62.955459 -99.128748 10.140796 -87.856819 0.000000 0.000000 0.000000 9.638234 22.452937 -3.073846 10.524448 19.580223 -2.060258 0.000000 0.000000 0.000000 -0.647260 41.524958 49.358430 -110.278698 63.417876 91.218242 0.000000 0.000000 0.000000 
-2.167148 31.752579 4.576799 0.000000 0.000000 0.000000 -3.787141 13.512146 1.535553 -30.485419 10.757988 23.732076 55.380519 3.907521 -2.895840 -12.312976 -4.544198 -15.238734 -4.973412 5.136245 4.861470 0.000000 0.000000 0.000000 -3.787141 13.512146 1.535553 -20.522266 -5.997275 -10.862705 50.626018 1.772112 -2.821904 -26.937216 0.944537 6.395815 1.707932 2.199556 2.087525 0.000000 0.000000 0.000000 -3.787141 13.512146 1.535553 5.213708 0.727923 0.026843 4.826715 0.215053 -0.201124 0.000000 0.000000 0.000000 0.000000 0.000000 0.000000 9.481423 20.802325 -3.010856 2.938307 6.279600 -0.050552 1.320965 45.317636 -6.446573 0.000000 0.000000 0.000000 9.481423 20.802325 -3.010856 8.936018 -24.743276 -2.968067 0.000000 0.000000 0.000000 -28.288075 8.343177 -63.695086 -100.182913 9.672599 -86.522781 0.000000 0.000000 0.000000 9.481423 20.802325 -3.010856 10.526040 19.596228 -2.063793 0.000000 0.000000 0.000000 -0.187990 41.091094 49.110201 -110.007478 63.467552 90.368416 0.000000 0.000000 0.000000 
-1.612283 31.574028 3.641237 0.000000 0.000000 0.000000 -4.399615 17.719287 2.346767 -29.144407 11.753193 25.600500 55.825540 5.148538 -3.230608 -14.161006 -3.904700 -15.358958 -3.877582 5.294821 6.029854 0.000000 0.000000 0.000000 -4.399615 17.719287 2.346767 -20.377376 -6.825956 -13.894273 51.614186 1.705633 -3.426363 -27.254466 -1.484243 8.933415 1.715632 2.199624 2.097003 0.000000 0.000000 0.000000 -4.399615 17.719287 2.346767 4.978895 0.626768 0.526942 4.925439 0.265959 -0.359680 0.000000 0.000000 0.000000 0.000000 0.000000 0.000000 9.348587 18.516841 -2.876559 2.877403 6.150949 -0.085553 1.591232 43.198901 -6.431824 0.000000 0.000000 0.000000 9.348587 18.516841 -2.876559 8.936007 -24.743291 -2.968067 0.000000 0.000000 0.000000 -28.319243 7.393722 -63.955453 -100.281718 9.518183 -85.570406 0.000000 0.000000 0.000000 9.348587 18.516841 -2.876559 10.528514 19.608717 -2.066772 0.000000 0.000000 0.000000 0.175774 40.429300 48.871745 -109.599258 63.541004 89.944268 0.000000 0.000000 0.000000 
